IKResults
version=1
nRows=82
nColumns=5
inDegrees=yes

Units are S.I. units (second, meters, Newtons, ...)
If the header above contains a line with 'inDegrees', this indicates whether rotational values are in degrees (yes) or radians (no).

endheader
time	r_shoulder_elev	r_shoulder_side	r_elbow_flex	r_elbow_rotation
      9.80000000	     80.69222891	     13.18585116	     -5.70498664	      3.48940160
      9.81667000	     80.70856194	     13.54754842	     -5.75250240	      3.47579251
      9.83333000	     80.59332646	     12.29876171	     -5.78925928	      3.49304490
      9.85000000	     80.14700345	     13.12159730	     -4.53951964	      3.48909477
      9.86667000	     80.19340039	     13.20815498	     -4.71746793	      3.49359589
      9.88333000	     80.32587310	     13.54425799	     -4.96261422	      3.49208957
      9.90000000	     80.07556505	     14.67809451	     -4.06488635	      3.49091754
      9.91667000	     79.99604049	     15.22364955	     -3.73906151	      3.48961629
      9.93333000	     80.12081290	     16.14988269	     -3.78996666	      3.46767909
      9.95000000	     80.34294993	     16.25656602	     -4.31881864	      3.49354133
      9.96667000	     80.42711232	     17.13477285	     -4.30966848	      3.48492401
      9.98333000	     80.44562086	     18.46947513	     -4.01296148	      3.49119956
     10.00000000	     80.42381654	     17.94803612	     -3.92212531	      3.52202106
     10.01667000	     80.35475249	     18.08423834	     -3.54089632	      3.48884837
     10.03333000	     80.30792281	     18.13283071	     -3.30167355	      3.49188838
     10.05000000	     80.38748512	     17.97032630	     -3.40583751	      3.45424508
     10.06667000	     80.18172423	     17.00416339	     -3.00847878	      3.49044079
     10.08333000	     79.99524259	     15.80582556	     -2.69110212	      3.49028405
     10.10000000	     79.92804197	     15.88754234	     -2.42410226	      3.49009166
     10.11667000	     79.94220084	     15.76519438	     -2.38141276	      3.50383023
     10.13333000	     79.75821798	     15.25548936	     -1.88405745	      3.48989234
     10.15000000	     79.71419524	     15.01967776	     -1.71735069	      3.53797920
     10.16667000	     79.60377741	     15.10043319	     -1.29593000	      3.49076797
     10.18333000	     79.51369436	     15.37306741	      0.08479380	      3.48814779
     10.20000000	     79.40528131	     15.61352916	      1.16388092	      3.49052617
     10.21667000	     79.35430437	     15.69212483	      1.70919030	      3.49128704
     10.23333000	     79.24599926	     16.83720176	      2.48834841	      3.48754130
     10.25000000	     79.30139433	     17.81490257	      3.62905310	      3.48784259
     10.26667000	     79.47219849	     19.46134222	      4.50252512	      3.48934547
     10.28333000	     79.29469636	     20.34316713	      9.06528338	      3.49055668
     10.30000000	     79.18817078	     20.52435220	     11.00800409	      3.48868800
     10.31667000	     79.02855377	     20.20629045	     12.11074079	      3.48861978
     10.33333000	     78.86853534	     19.89479172	     12.79198873	      3.48975996
     10.35000000	     78.36051956	     19.08220250	     15.59437240	      3.48465526
     10.36667000	     78.03483324	     18.72426510	     17.10070472	      3.48759899
     10.38333000	     77.71871549	     18.04004919	     18.27678316	      3.49080131
     10.40000000	     76.98566756	     16.52974305	     29.60428416	      3.48918924
     10.41667000	     76.97814809	     16.27288791	     32.82111228	      3.48662098
     10.43333000	     76.98243759	     16.34456571	     33.97267298	      3.48843783
     10.45000000	     76.62072169	     15.58824786	     40.25834903	      3.49108123
     10.46667000	     76.73235611	     16.23308960	     41.87880667	      3.48669631
     10.48333000	     76.69336461	     16.51467228	     42.77659753	      3.49086324
     10.50000000	     73.70892520	     13.30242883	     56.18983303	      3.48800855
     10.51667000	     72.74849615	     13.80280591	     60.68880023	      3.48703930
     10.53333000	     71.89848521	     13.98103415	     63.25077769	      3.49148139
     10.55000000	     71.31407579	     14.56821940	     64.77900951	      3.49009913
     10.56667000	     69.87385152	     10.81679268	     70.01210313	      3.48470699
     10.58333000	     69.48031477	     13.08335995	     80.68955607	      3.49079028
     10.60000000	     68.79597482	     13.34000585	     84.46938405	      3.49199224
     10.61667000	     68.24801245	     12.73819671	     85.82795551	      3.49099651
     10.63333000	     67.67832485	     10.98302263	     86.16183112	      3.49188683
     10.65000000	     68.34528806	     12.52055296	     88.06489883	      3.49030843
     10.66667000	     68.80642006	     14.39590845	     89.05364461	      3.49081125
     10.68333000	     67.93611490	     17.94642819	     99.59076193	      3.49168764
     10.70000000	     68.48369645	     19.99247812	    101.19647649	      3.49103162
     10.71667000	     69.42987334	     22.13561028	    100.45802749	      3.49258963
     10.73333000	     69.52620159	     21.97249318	     99.87335952	      3.49334262
     10.75000000	     69.81804766	     23.51381203	    100.87677525	      3.49256027
     10.76667000	     69.53372934	     23.63421886	    101.45521909	      3.48993568
     10.78333000	     69.46971122	     23.84898825	    101.74643426	      3.49196326
     10.80000000	     69.11471138	     21.90902426	    105.95850862	      3.49278125
     10.81667000	     68.59119882	     20.26153904	    107.30203785	      3.49015519
     10.83333000	     68.85829309	     20.60532481	    107.30896636	      3.49311216
     10.85000000	     69.72725147	     22.01391802	    108.41562318	      3.48837786
     10.86667000	     70.76343094	     23.76873830	    107.55395764	      3.49269210
     10.88333000	     71.24034866	     24.50326207	    107.10530177	      3.49420133
     10.90000000	     68.91814933	     17.39102805	    112.05652331	      3.48973082
     10.91667000	     69.27984688	     17.50822450	    112.46074270	      3.49100932
     10.93333000	     69.58527610	     18.20032463	    112.58542457	      3.53451507
     10.95000000	     69.62618710	     18.09020175	    114.50717956	      3.48858828
     10.96667000	     69.50498912	     17.95542483	    115.20817031	      3.49012192
     10.98333000	     61.57504939	     -7.72841713	    110.58849551	      3.49573547
     11.00000000	     61.68167799	    -11.40382566	    108.17071529	      3.49232078
     11.01667000	     61.35370531	    -11.97971292	    108.24979654	      3.50337984
     11.03333000	     61.89479823	     -8.51605978	    111.40778513	      3.49109381
     11.05000000	     61.66919764	     -7.76037157	    113.49726650	      3.49234739
     11.06667000	     61.09206016	    -12.24326133	    109.80961928	      3.49194705
     11.08333000	     66.60328737	      9.25285014	    124.37553637	      3.48657831
     11.10000000	     67.76613512	     14.11448315	    126.42266337	      3.49316617
     11.11667000	     68.22641539	     15.65776175	    126.93100307	      3.49202308
     11.13333000	     67.59721044	     14.03491205	    127.10230349	      3.49502749
     11.15000000	     68.27184455	     15.00687101	    128.01611526	      3.49063866
